<?xml version="1.0" encoding="UTF-8" standalone="no"?>
<svg
   xmlns:dc="http://purl.org/dc/elements/1.1/"
   xmlns:cc="http://creativecommons.org/ns#"
   xmlns:rdf="http://www.w3.org/1999/02/22-rdf-syntax-ns#"
   xmlns:svg="http://www.w3.org/2000/svg"
   xmlns="http://www.w3.org/2000/svg"
   viewBox="0 0 377.95334 377.95334"
   height="377.95334"
   width="377.95334"
   xml:space="preserve"
   id="svg2"
   version="1.1"><metadata
     id="metadata8"><rdf:RDF><cc:Work
         rdf:about=""><dc:format>image/svg+xml</dc:format><dc:type
           rdf:resource="http://purl.org/dc/dcmitype/StillImage" /></cc:Work></rdf:RDF></metadata><defs
     id="defs6"><clipPath
       id="clipPath18"
       clipPathUnits="userSpaceOnUse"><path
         id="path16"
         d="M 0,0 H 283.465 V 283.465 H 0 Z" /></clipPath><radialGradient
       id="radialGradient24"
       spreadMethod="pad"
       gradientTransform="matrix(60.4499,-104.702,104.702,60.4499,140.385,136.441)"
       gradientUnits="userSpaceOnUse"
       r="1"
       cy="0"
       cx="0"
       fy="0"
       fx="0"><stop
         id="stop20"
         offset="0"
         style="stop-opacity:1;stop-color:#a2d9f3" /><stop
         id="stop22"
         offset="1"
         style="stop-opacity:1;stop-color:#2e84bf" /></radialGradient><radialGradient
       id="radialGradient32"
       spreadMethod="pad"
       gradientTransform="matrix(118.302,-20.8599,20.8599,118.302,140.385,136.441)"
       gradientUnits="userSpaceOnUse"
       r="1"
       cy="0"
       cx="0"
       fy="0"
       fx="0"><stop
         id="stop28"
         offset="0"
         style="stop-opacity:1;stop-color:#a2d9f3" /><stop
         id="stop30"
         offset="1"
         style="stop-opacity:1;stop-color:#2e84bf" /></radialGradient><linearGradient
       id="linearGradient40"
       spreadMethod="pad"
       gradientTransform="matrix(120.293,-208.354,208.354,120.293,118.891,257.7916)"
       gradientUnits="userSpaceOnUse"
       y2="0"
       x2="1"
       y1="0"
       x1="0"><stop
         id="stop36"
         offset="0"
         style="stop-opacity:1;stop-color:#a2d9f3" /><stop
         id="stop38"
         offset="1"
         style="stop-opacity:1;stop-color:#20539e" /></linearGradient><linearGradient
       id="linearGradient48"
       spreadMethod="pad"
       gradientTransform="matrix(236.304,-41.6668,41.6668,236.304,37.1981,191.6287)"
       gradientUnits="userSpaceOnUse"
       y2="0"
       x2="1"
       y1="0"
       x1="0"><stop
         id="stop44"
         offset="0"
         style="stop-opacity:1;stop-color:#a2d9f3" /><stop
         id="stop46"
         offset="1"
         style="stop-opacity:1;stop-color:#20539e" /></linearGradient><clipPath
       id="clipPath58"
       clipPathUnits="userSpaceOnUse"><path
         id="path56"
         d="m 90.907,100.454 c 4.663,-0.408 8.775,3.042 9.183,7.706 0.408,4.664 -3.042,8.775 -7.706,9.183 -4.664,0.408 -8.775,-3.042 -9.183,-7.706 -0.408,-4.663 3.042,-8.775 7.706,-9.183" /></clipPath><radialGradient
       id="radialGradient78"
       gradientTransform="matrix(8.4443359,-0.7387848,-0.7387848,-8.4443359,91.645355,108.89873)"
       gradientUnits="userSpaceOnUse"
       r="1"
       cy="0"
       cx="0"
       fy="0"
       fx="0"><stop
         id="stop74"
         offset="0"
         style="stop-opacity:1;stop-color:#8ed2f0" /><stop
         id="stop76"
         offset="1"
         style="stop-opacity:1;stop-color:#3c66aa" /></radialGradient><clipPath
       id="clipPath88"
       clipPathUnits="userSpaceOnUse"><path
         id="path86"
         d="m 199.113,176.417 c 4.663,-0.408 8.775,3.042 9.183,7.706 0.408,4.664 -3.042,8.775 -7.706,9.183 -4.663,0.408 -8.775,-3.042 -9.183,-7.705 -0.408,-4.664 3.042,-8.776 7.706,-9.184" /></clipPath><radialGradient
       id="radialGradient108"
       gradientTransform="matrix(8.4443359,-0.7387848,-0.7387848,-8.4443359,199.85152,184.86179)"
       gradientUnits="userSpaceOnUse"
       r="1"
       cy="0"
       cx="0"
       fy="0"
       fx="0"><stop
         id="stop104"
         offset="0"
         style="stop-opacity:1;stop-color:#8ed2f0" /><stop
         id="stop106"
         offset="1"
         style="stop-opacity:1;stop-color:#3c66aa" /></radialGradient><clipPath
       id="clipPath118"
       clipPathUnits="userSpaceOnUse"><path
         id="path116"
         d="m 90.463,95.388 c 7.462,-0.653 14.04,4.867 14.693,12.329 0.653,7.462 -4.867,14.04 -12.329,14.693 -7.461,0.652 -14.04,-4.867 -14.693,-12.329 -0.652,-7.462 4.867,-14.04 12.329,-14.693" /></clipPath><radialGradient
       id="radialGradient138"
       gradientTransform="matrix(13.51091,-1.1820526,-1.1820526,-13.51091,91.645325,108.89873)"
       gradientUnits="userSpaceOnUse"
       r="1"
       cy="0"
       cx="0"
       fy="0"
       fx="0"><stop
         id="stop134"
         offset="0"
         style="stop-opacity:1;stop-color:#8ed2f0" /><stop
         id="stop136"
         offset="1"
         style="stop-opacity:1;stop-color:#3c66aa" /></radialGradient><clipPath
       id="clipPath148"
       clipPathUnits="userSpaceOnUse"><path
         id="path146"
         d="m 198.669,171.351 c 7.462,-0.653 14.041,4.867 14.693,12.329 0.653,7.462 -4.867,14.04 -12.328,14.693 -7.462,0.653 -14.041,-4.867 -14.693,-12.329 -0.653,-7.462 4.867,-14.04 12.328,-14.693" /></clipPath><radialGradient
       id="radialGradient168"
       gradientTransform="matrix(13.51091,-1.1820526,-1.1820526,-13.51091,199.85152,184.86177)"
       gradientUnits="userSpaceOnUse"
       r="1"
       cy="0"
       cx="0"
       fy="0"
       fx="0"><stop
         id="stop164"
         offset="0"
         style="stop-opacity:1;stop-color:#8ed2f0" /><stop
         id="stop166"
         offset="1"
         style="stop-opacity:1;stop-color:#3c66aa" /></radialGradient></defs><g
     transform="matrix(1.3333333,0,0,-1.3333333,0,377.95333)"
     id="g10"><g
       id="g12"><g
         clip-path="url(#clipPath18)"
         id="g14"><path
           id="path26"
           style="fill:none;stroke:url(#radialGradient24);stroke-width:12;stroke-linecap:butt;stroke-linejoin:miter;stroke-miterlimit:4;stroke-dasharray:none;stroke-opacity:1"
           d="m 170.225,130.116 c 34.171,58.086 48.513,112.743 32.033,122.081 -16.48,9.338 -57.541,-30.18 -91.712,-88.266 C 76.375,105.846 62.033,51.188 78.513,41.85 c 16.48,-9.337 57.541,30.181 91.712,88.266 z" /><path
           id="path34"
           style="fill:none;stroke:url(#radialGradient32);stroke-width:12;stroke-linecap:butt;stroke-linejoin:miter;stroke-miterlimit:4;stroke-dasharray:none;stroke-opacity:1"
           d="m 146.236,111.87 c 65.815,12.295 116.548,38 113.317,57.415 -3.231,19.415 -59.204,25.187 -125.018,12.892 C 68.72,169.882 17.987,144.177 21.218,124.762 24.449,105.347 80.422,99.575 146.236,111.87 Z" /><path
           id="path42"
           style="fill:none;stroke:url(#linearGradient40);stroke-width:12;stroke-linecap:butt;stroke-linejoin:miter;stroke-miterlimit:4;stroke-dasharray:none;stroke-opacity:1"
           d="m 178.225,130.448 c 33.133,56.947 47.038,110.532 31.059,119.687 C 193.305,259.29 153.493,220.547 120.36,163.6 87.228,106.653 73.322,53.067 89.301,43.912 c 15.979,-9.155 55.792,29.589 88.924,86.536 z" /><path
           id="path50"
           style="fill:none;stroke:url(#linearGradient48);stroke-width:12;stroke-linecap:butt;stroke-linejoin:miter;stroke-miterlimit:4;stroke-dasharray:none;stroke-opacity:1"
           d="m 155.041,113.634 c 64.662,11.678 114.508,36.093 111.333,54.534 -3.174,18.44 -58.167,23.923 -122.83,12.245 C 78.882,168.735 29.036,144.32 32.211,125.879 c 3.175,-18.44 58.167,-23.922 122.83,-12.245 z" /><g
           id="g52"><g
             clip-path="url(#clipPath58)"
             id="g54"><path
               id="path60"
               style="fill:#3c66aa;fill-opacity:1;fill-rule:nonzero;stroke:none"
               d="m 90.907,100.454 c 4.663,-0.408 8.775,3.042 9.183,7.706 0.408,4.664 -3.042,8.775 -7.706,9.183 -4.664,0.408 -8.775,-3.042 -9.183,-7.706 -0.408,-4.663 3.042,-8.775 7.706,-9.183" /><g
               id="g62"><g
                 id="g64"><g
                   id="g70"><g
                     id="g72"><path
                       id="path80"
                       style="fill:url(#radialGradient78);stroke:none"
                       d="m 90.907,100.454 c 4.663,-0.408 8.775,3.042 9.183,7.706 0.408,4.664 -3.042,8.775 -7.706,9.183 -4.664,0.408 -8.775,-3.042 -9.183,-7.706 -0.408,-4.663 3.042,-8.775 7.706,-9.183" /></g></g></g></g></g></g><g
           id="g82"><g
             clip-path="url(#clipPath88)"
             id="g84"><path
               id="path90"
               style="fill:#3c66aa;fill-opacity:1;fill-rule:nonzero;stroke:none"
               d="m 199.113,176.417 c 4.663,-0.408 8.775,3.042 9.183,7.706 0.408,4.664 -3.042,8.775 -7.706,9.183 -4.663,0.408 -8.775,-3.042 -9.183,-7.705 -0.408,-4.664 3.042,-8.776 7.706,-9.184" /><g
               id="g92"><g
                 id="g94"><g
                   id="g100"><g
                     id="g102"><path
                       id="path110"
                       style="fill:url(#radialGradient108);stroke:none"
                       d="m 199.113,176.417 c 4.663,-0.408 8.775,3.042 9.183,7.706 0.408,4.664 -3.042,8.775 -7.706,9.183 -4.663,0.408 -8.775,-3.042 -9.183,-7.705 -0.408,-4.664 3.042,-8.776 7.706,-9.184" /></g></g></g></g></g></g><g
           id="g112"><g
             clip-path="url(#clipPath118)"
             id="g114"><path
               id="path120"
               style="fill:#3c66aa;fill-opacity:1;fill-rule:nonzero;stroke:none"
               d="m 90.463,95.388 c 7.462,-0.653 14.04,4.867 14.693,12.329 0.653,7.462 -4.867,14.04 -12.329,14.693 -7.461,0.652 -14.04,-4.867 -14.693,-12.329 -0.652,-7.462 4.867,-14.04 12.329,-14.693" /><g
               id="g122"><g
                 id="g124"><g
                   id="g130"><g
                     id="g132"><path
                       id="path140"
                       style="fill:url(#radialGradient138);stroke:none"
                       d="m 90.463,95.388 c 7.462,-0.653 14.04,4.867 14.693,12.329 0.653,7.462 -4.867,14.04 -12.329,14.693 -7.461,0.652 -14.04,-4.867 -14.693,-12.329 -0.652,-7.462 4.867,-14.04 12.329,-14.693" /></g></g></g></g></g></g><g
           id="g142"><g
             clip-path="url(#clipPath148)"
             id="g144"><path
               id="path150"
               style="fill:#3c66aa;fill-opacity:1;fill-rule:nonzero;stroke:none"
               d="m 198.669,171.351 c 7.462,-0.653 14.041,4.867 14.693,12.329 0.653,7.462 -4.867,14.04 -12.328,14.693 -7.462,0.653 -14.041,-4.867 -14.693,-12.329 -0.653,-7.462 4.867,-14.04 12.328,-14.693" /><g
               id="g152"><g
                 id="g154"><g
                   id="g160"><g
                     id="g162"><path
                       id="path170"
                       style="fill:url(#radialGradient168);stroke:none"
                       d="m 198.669,171.351 c 7.462,-0.653 14.041,4.867 14.693,12.329 0.653,7.462 -4.867,14.04 -12.328,14.693 -7.462,0.653 -14.041,-4.867 -14.693,-12.329 -0.653,-7.462 4.867,-14.04 12.328,-14.693" /></g></g></g></g></g></g></g></g></g></svg>